<svg xmlns="http://www.w3.org/2000/svg" xmlns:xlink="http://www.w3.org/1999/xlink" viewBox="0 0 38.884 25.976">
  <defs>
    <style>
      .cls-1, .cls-3 {
        stroke: #f7f7f7;
      }

      .cls-1 {
        fill: url(#linear-gradient);
      }

      .cls-2, .cls-3, .cls-5 {
        fill: none;
      }

      .cls-3 {
        stroke-linecap: round;
        stroke-linejoin: round;
      }

      .cls-4, .cls-6 {
        stroke: none;
      }

      .cls-6 {
        fill: #f7f7f7;
      }
    </style>
    <linearGradient id="linear-gradient" x1="0.5" x2="0.693" y2="1.237" gradientUnits="objectBoundingBox">
      <stop offset="0" stop-color="#e307e3"/>
      <stop offset="1" stop-color="#1600ba"/>
    </linearGradient>
  </defs>
  <g id="Group_79" data-name="Group 79" transform="translate(-221 -579)">
    <g id="Rectangle_18" data-name="Rectangle 18" class="cls-1" transform="translate(221 579)">
      <rect class="cls-4" width="38.884" height="25.976" rx="3"/>
      <rect class="cls-5" x="0.5" y="0.5" width="37.884" height="24.976" rx="2.5"/>
    </g>
    <g id="Exclusion_1" data-name="Exclusion 1" class="cls-2" transform="translate(225.787 585.297)">
      <path class="cls-4" d="M11.453,13.569H.1a4.1,4.1,0,0,1-.1-.877c0-2.658,2.59-4.821,5.774-4.821s5.775,2.163,5.775,4.821a4.1,4.1,0,0,1-.1.876ZM5.983,7.084a3.57,3.57,0,0,1-3.59-3.542,3.59,3.59,0,0,1,7.18,0A3.57,3.57,0,0,1,5.983,7.084Z"/>
      <path class="cls-6" d="M 10.54642963409424 12.56932163238525 C 10.50866508483887 11.63045883178711 10.03916263580322 10.74090671539307 9.214730262756348 10.05266094207764 C 8.302249908447266 9.290911674499512 7.080340385437012 8.871400833129883 5.77409029006958 8.871400833129883 C 4.468050479888916 8.871400833129883 3.246340274810791 9.290901184082031 2.3340003490448 10.05262088775635 C 1.509673595428467 10.74087619781494 1.040230393409729 11.63043212890625 1.00247049331665 12.56932163238525 L 10.54642963409424 12.56932163238525 M 5.983030319213867 6.084331512451172 C 7.411140441894531 6.084331512451172 8.572990417480469 4.943921089172363 8.572990417480469 3.542161226272583 C 8.572990417480469 2.140411376953125 7.411140441894531 1.000001311302185 5.983030319213867 1.000001311302185 C 4.554920196533203 1.000001311302185 3.393070220947266 2.140411376953125 3.393070220947266 3.542161226272583 C 3.393070220947266 4.943921089172363 4.554920196533203 6.084331512451172 5.983030319213867 6.084331512451172 M 11.45341014862061 13.56932163238525 L 11.45276069641113 13.56932163238525 L 0.09549029916524887 13.56932163238525 C 0.03186030313372612 13.27920150756836 3.021240218004095e-07 12.98434162139893 3.021240218004095e-07 12.69228172302246 C 3.021240218004095e-07 10.03404140472412 2.590240240097046 7.871401309967041 5.77409029006958 7.871401309967041 C 8.958330154418945 7.871401309967041 11.54890060424805 10.03404140472412 11.54890060424805 12.69228172302246 C 11.54890060424805 12.98514175415039 11.51681995391846 13.28001117706299 11.45353984832764 13.56870174407959 L 11.45341014862061 13.56932163238525 Z M 5.983030319213867 7.084331512451172 C 4.003510475158691 7.084331512451172 2.393070220947266 5.495321273803711 2.393070220947266 3.542161226272583 C 2.393070220947266 1.589011311531067 4.003510475158691 1.293029754378949e-06 5.983030319213867 1.293029754378949e-06 C 7.962540149688721 1.293029754378949e-06 9.572990417480469 1.589011311531067 9.572990417480469 3.542161226272583 C 9.572990417480469 5.495321273803711 7.962540149688721 7.084331512451172 5.983030319213867 7.084331512451172 Z"/>
    </g>
    <path id="Union_6" data-name="Union 6" class="cls-3" d="M0,11.5H0Zm0-3.6H0ZM0,5.752H0Zm0-3.6H0ZM0,0H0Z" transform="translate(240.387 586.478)"/>
  </g>
</svg>
