<?xml version="1.0" encoding="UTF-8"?>
<svg width="70px" height="70px" viewBox="0 0 70 70" version="1.1" xmlns="http://www.w3.org/2000/svg" xmlns:xlink="http://www.w3.org/1999/xlink">
    <!-- Generator: Sketch 49.2 (51160) - http://www.bohemiancoding.com/sketch -->
    <title>Group 8@1x</title>
    <desc>Created with Sketch.</desc>
    <defs>
        <linearGradient x1="-6.74243369%" y1="15.2882692%" x2="50%" y2="100%" id="linearGradient-1">
            <stop stop-color="#EA74ED" offset="0%"></stop>
            <stop stop-color="#409ED7" offset="100%"></stop>
        </linearGradient>
    </defs>
    <g id="Page-1" stroke="none" stroke-width="1" fill="none" fill-rule="evenodd">
        <g id="Tablet-Copy-14" transform="translate(-91.000000, -507.000000)">
            <g id="Group-8" transform="translate(93.000000, 509.000000)">
                <path d="M22.0268413,6.50845136 C24.1489756,2.63012691 28.2673382,0 33,0 C37.7326618,0 41.8510244,2.63012691 43.9731587,6.50845136 C48.2161238,5.26663738 52.9880266,6.318979 56.3345238,9.66547622 C59.681021,13.0119734 60.7333626,17.7838762 59.4915486,22.0268413 C63.3698731,24.1489756 66,28.2673382 66,33 C66,37.7326618 63.3698731,41.8510244 59.4915486,43.9731587 C60.7333626,48.2161238 59.681021,52.9880266 56.3345238,56.3345238 C52.9880266,59.681021 48.2161238,60.7333626 43.9731587,59.4915486 C41.8510244,63.3698731 37.7326618,66 33,66 C28.2673382,66 24.1489756,63.3698731 22.0268413,59.4915486 C17.7838762,60.7333626 13.0119734,59.681021 9.66547622,56.3345238 C6.318979,52.9880266 5.26663738,48.2161238 6.50845136,43.9731587 C2.63012691,41.8510244 3.49519951e-16,37.7326618 -5.19855909e-16,33 C-1.38923177e-15,28.2673382 2.63012691,24.1489756 6.50845136,22.0268413 C5.26663738,17.7838762 6.318979,13.0119734 9.66547622,9.66547622 C13.0119734,6.318979 17.7838762,5.26663738 22.0268413,6.50845136 Z" id="Combined-Shape" stroke="#00FAFF" stroke-width="4" fill="url(#linearGradient-1)"></path>
                <path d="M27.188171,35.6454073 C29.1950245,33.823969 31.2360004,32.0861179 33.3110988,30.4318541 C37.5201373,27.076418 41.9828527,23.9745648 46.699245,21.1262945 L46.6992513,21.1263049 C47.0883152,20.8913459 47.5932347,21.0021899 47.8481055,21.3785107 C48.0924911,21.73935 47.9980868,22.2299818 47.6372474,22.4743675 C47.6328921,22.4773172 47.6285074,22.4802233 47.624094,22.4830853 C42.7892667,25.6184269 38.4138782,29.0668883 34.4979411,32.8284888 C30.939587,36.2465997 27.5918695,40.0853584 24.4547888,44.3447651 L24.4547612,44.3447447 C23.9288244,45.0588414 22.9235786,45.211375 22.209482,44.6854382 C22.0386598,44.5596265 21.8944606,44.4012129 21.7852154,44.2193494 L21.1932807,43.2339641 C21.0265192,42.9563515 20.9480612,42.645869 20.953671,42.338648 C20.9533872,42.3376356 20.9531044,42.3366229 20.9528224,42.3356098 L18.0248518,31.814039 C17.9382862,31.5029683 18.1202836,31.1806204 18.4313543,31.0940548 C18.4505574,31.0887109 18.4700211,31.0843526 18.4896694,31.0809969 C18.8688156,31.0162429 19.2467998,31.2016723 19.4276436,31.5411432 C21.4504192,35.3382168 22.9833378,37.236505 24.02639,37.2360128 C24.8316285,37.2356328 26.1040058,36.4787094 27.188171,35.6454073 Z" id="Combined-Shape" fill="#FFFFFF"></path>
            </g>
        </g>
    </g>
</svg>