<svg xmlns="http://www.w3.org/2000/svg" xmlns:xlink="http://www.w3.org/1999/xlink" viewBox="0 0 40.126 33.089">
  <defs>
    <style>
      .cls-1 {
        stroke: #f7f7f7;
        stroke-linecap: round;
        stroke-linejoin: round;
        fill: url(#linear-gradient);
      }

      .cls-2, .cls-3 {
        fill: #f7f7f7;
      }

      .cls-3 {
        stroke: rgba(0,0,0,0);
      }
    </style>
    <linearGradient id="linear-gradient" x1="0.082" y1="0.073" x2="0.869" y2="1.196" gradientUnits="objectBoundingBox">
      <stop offset="0" stop-color="#ff0"/>
      <stop offset="1" stop-color="#006910"/>
    </linearGradient>
  </defs>
  <g id="Group_78" data-name="Group 78" transform="translate(-216.392 -643.276)">
    <path id="Path_44" data-name="Path 44" class="cls-1" d="M212.892,659.591l19.536-11.815,19.59,11.815v20.274H212.892Z" transform="translate(4 -4)"/>
    <path id="Path_45" data-name="Path 45" class="cls-2" d="M1.482-13.566V.564h1.88V-5.472H7.953a2.5,2.5,0,0,1,1.108.208,1.855,1.855,0,0,1,.673.554,2.3,2.3,0,0,1,.376.811q.119.465.2.98a6.9,6.9,0,0,1,.119,1.049q.02.534.04,1a6.1,6.1,0,0,0,.089.841,1.18,1.18,0,0,0,.267.594h2.1a2.415,2.415,0,0,1-.445-.821,6.436,6.436,0,0,1-.228-.98,9.11,9.11,0,0,1-.1-1.049q-.02-.534-.059-1.049a9.1,9.1,0,0,0-.168-.989,3,3,0,0,0-.336-.861,2.169,2.169,0,0,0-.613-.663,2.517,2.517,0,0,0-1-.4v-.04a3.005,3.005,0,0,0,1.87-1.326,4.289,4.289,0,0,0,.584-2.256,3.406,3.406,0,0,0-1.138-2.711,4.653,4.653,0,0,0-3.156-.989Zm5.8,6.511H3.362v-4.928h4.67a2.44,2.44,0,0,1,1.92.673,2.535,2.535,0,0,1,.594,1.741,2.592,2.592,0,0,1-.267,1.257,2.114,2.114,0,0,1-.712.772,2.72,2.72,0,0,1-1.039.386A7.578,7.578,0,0,1,7.28-7.055Z" transform="translate(219.3 673.562)"/>
    <path id="Path_46" data-name="Path 46" class="cls-2" d="M1.96-5.027H.475A4.4,4.4,0,0,0,1.646-2.153,4.382,4.382,0,0,0,4.423-.939V.494h.961V-.939a5.3,5.3,0,0,0,1.537-.349,3.76,3.76,0,0,0,1.205-.76,3.453,3.453,0,0,0,.795-1.144,3.784,3.784,0,0,0,.288-1.52A2.909,2.909,0,0,0,8.9-6.093a3.358,3.358,0,0,0-.743-.961,3.787,3.787,0,0,0-.908-.6,4.761,4.761,0,0,0-.821-.306l-1.048-.28v-4.3a2.325,2.325,0,0,1,1.957,2.027H8.826a5,5,0,0,0-1.188-2.411,3.626,3.626,0,0,0-2.254-1.048v-1.171H4.423v1.153a4.324,4.324,0,0,0-1.406.332,3.567,3.567,0,0,0-1.136.76,3.567,3.567,0,0,0-.76,1.136,3.635,3.635,0,0,0-.28,1.441,3.637,3.637,0,0,0,.21,1.31,2.239,2.239,0,0,0,.655.917,4.093,4.093,0,0,0,1.118.646,11.935,11.935,0,0,0,1.6.5v4.63a3.139,3.139,0,0,1-1.738-.856A2.6,2.6,0,0,1,1.96-5.027ZM5.384-2.319V-6.7q.472.14.891.306a2.653,2.653,0,0,1,.716.411,1.836,1.836,0,0,1,.472.585,1.845,1.845,0,0,1,.175.847,2.579,2.579,0,0,1-.166.97A1.789,1.789,0,0,1,7-2.9a2.076,2.076,0,0,1-.716.411A3.574,3.574,0,0,1,5.384-2.319ZM4.423-12.592V-8.5a6.469,6.469,0,0,1-.8-.28,2.709,2.709,0,0,1-.638-.376A1.478,1.478,0,0,1,2.563-9.7a1.852,1.852,0,0,1-.149-.777A1.907,1.907,0,0,1,3-11.989,2.486,2.486,0,0,1,4.423-12.592Z" transform="translate(242.65 668.262)"/>
    <path id="Union_7" data-name="Union 7" class="cls-3" d="M4.674,12.089V10.307H.857V9.416H4.674V8.525H.857V7.634H4.674V7.145L0,0H1.914L5.537,5.757,9.076,0H10.9L6.282,7.145v.488H9.769v.891H6.282v.891H9.769v.891H6.282v1.782Z" transform="translate(232.22 660.102)"/>
  </g>
</svg>
