<?xml version="1.0" encoding="UTF-8"?>
<svg width="129px" height="58px" viewBox="0 0 129 58" version="1.1" xmlns="http://www.w3.org/2000/svg" xmlns:xlink="http://www.w3.org/1999/xlink">
    <!-- Generator: Sketch 49.2 (51160) - http://www.bohemiancoding.com/sketch -->
    <title>J-Cred Logo Copy@1x</title>
    <desc>Created with Sketch.</desc>
    <defs>
        <path d="M3.15,6.3 C1.4103,6.3 0,4.8897 0,3.15 C0,1.4103 1.4103,0 3.15,0 C4.8897,0 6.3,1.4103 6.3,3.15 C6.3,4.8897 4.8897,6.3 3.15,6.3 Z" id="path-1"></path>
        <path d="M2.1,0.20949 L2.1,30.6 C2.1,31.7598 1.1598,32.7 0,32.7 L0,0.20949 L2.1,0.20949 Z" id="path-3"></path>
        <polygon id="path-5" points="0 0.20541 2.1 0.20541 2.1 32.7 0 32.7"></polygon>
        <polygon id="path-7" points="0 0.21072 2.4 0.21072 2.4 32.7 0 32.7"></polygon>
        <path d="M2.4,14.1 L2.4,19.75143 L0,19.75143 L0,14.1 L2.4,14.1 Z M2.4,0.21138 L2.4,6.6 L0,6.6 L0,0.21138 L2.4,0.21138 Z" id="path-9"></path>
        <path d="M2.4,14.07927 L2.4,19.74897 L2.34942,19.74897 L0,24.70206 L0,13.95534 C0.42573,14.02245 0.80277,14.05989 1.13115,14.06763 C1.45953,14.0754 1.88247,14.07927 2.4,14.07927 Z M0,0.21459 L2.4,0.21459 L2.4,6.6 L0,6.6 L0,0.21459 Z" id="path-11"></path>
        <path d="M2.4,13.96017 L2.4,24.70509 L0,29.76006 L0,12.9 C0.47706,13.28544 0.87705,13.53612 1.2,13.65213 C1.52295,13.76811 1.92294,13.8708 2.4,13.96017 Z M2.4,0.22038 L2.4,6.6 C1.89999,6.66657 1.48392,6.75243 1.15182,6.85758 C0.81972,6.96276 0.43578,7.1769 0,7.5 L0,0.46614 C0.55326,0.38595 0.96936,0.33159 1.24827,0.303 C1.52718,0.27444 1.91109,0.2469 2.4,0.22038 Z" id="path-13"></path>
        <path d="M2.4,7.2 C1.68351,8.01327 1.32528,8.93328 1.32528,9.96003 C1.32528,10.98678 1.68351,11.86902 2.4,12.60675 L2.4,29.46339 L1.04466,32.31468 L0,32.31468 L0,7.2 L0,0.85779 C0.33333,0.72003 0.66987,0.60174 1.00962,0.50295 C1.34937,0.40413 1.81281,0.29151 2.4,0.16512 L2.4,7.2 Z" id="path-15"></path>
        <path d="M2.4,18.6 L2.4,31.71588 L0,31.71588 L0,23.19723 L2.4,18.6 Z M2.4,0.26205 L2.4,17.7 C1.89429,17.46606 1.46559,17.24154 1.11393,17.0265 C0.76227,16.81143 0.39096,16.53594 0,16.2 L0,1.7016 C0.35568,1.40061 0.74514,1.12521 1.16838,0.87537 C1.59159,0.62556 2.00214,0.42111 2.4,0.26205 Z" id="path-17"></path>
        <path d="M3.3,21.69867 L3.3,30.20907 L0.9,30.20907 L0.9,26.19819 L3.3,21.69867 Z M3.3,0.19569 L3.3,14.7 C2.81499,14.36172 2.36136,13.8837 1.93917,13.26588 C1.51695,12.64809 1.17057,12.02613 0.9,11.4 C0.48585,10.03998 0.27876,8.76855 0.27876,7.58571 C0.27876,6.77907 0.38472,5.35731 0.70287,4.26732 C1.0845,2.95983 1.70868,2.01291 1.97901,1.6092 C2.30946,1.11564 2.74977,0.64449 3.3,0.19569 Z" id="path-19"></path>
        <path d="M1.5,0.10344 L1.5,4.1085 L0.97002,4.1085 C0.81129,4.1085 0.65499,4.06932 0.51504,3.99441 C0.04557,3.74313 -0.13134,3.15882 0.11994,2.68935 L1.5,0.10344 Z" id="path-21"></path>
        <path d="M15.16035,15.79827 C15.16035,16.71033 15.05667,17.6658 14.84928,18.66474 C14.64192,19.66368 14.2599,20.58117 13.70325,21.41724 C13.14663,22.25328 12.3717,22.94277 11.37846,23.48565 C10.38522,24.02856 9.10278,24.3 7.53105,24.3 C5.566428,24.3 3.929256,23.7951 2.619501,22.78533 C1.309743,21.77553 0.436587,20.47803 0,18.89277 L4.944306,17.23149 C5.097111,17.83956 5.37543,18.32814 5.779272,18.69732 C6.183114,19.0665 6.679722,19.25106 7.269114,19.25106 C8.18595,19.25106 8.79171,18.93621 9.0864,18.30642 C9.38109,17.67666 9.52842,16.85148 9.52842,15.83082 L9.52842,0.6189 L15.16035,0.6189 L15.16035,15.79827 Z M47.7933,20.48886 C46.76733,21.66153 45.50124,22.58988 43.99503,23.27394 C42.48882,23.95797 40.75341,24.3 38.78877,24.3 C36.99876,24.3 35.34522,24.00684 33.82809,23.42052 C32.31096,22.83417 30.99576,22.00356 29.88246,20.92863 C28.76919,19.85367 27.89601,18.56703 27.26298,17.06862 C26.62992,15.57024 26.31339,13.91985 26.31339,12.11742 C26.31339,10.27158 26.63538,8.59947 27.27933,7.10106 C27.92331,5.60268 28.81284,4.32687 29.94795,3.27366 C31.08309,2.22045 32.41464,1.41153 33.94269,0.84693 C35.47074,0.2823 37.11882,0 38.88699,0 C40.52421,0 42.1341,0.28773 43.71672,0.86319 C45.29934,1.43868 46.58178,2.28015 47.5641,3.38766 L43.76583,7.16622 C43.24191,6.44958 42.55431,5.91756 41.70297,5.5701 C40.85163,5.22264 39.97848,5.04894 39.08346,5.04894 C38.10114,5.04894 37.20069,5.22807 36.38211,5.58639 C35.5635,5.94471 34.85952,6.43875 34.27014,7.06851 C33.68073,7.69827 33.22233,8.44203 32.89491,9.29979 C32.56746,10.15758 32.40375,11.09679 32.40375,12.11742 C32.40375,13.1598 32.56746,14.11527 32.89491,14.98392 C33.22233,15.85254 33.6753,16.5963 34.25376,17.2152 C34.83225,17.83413 35.52531,18.31728 36.333,18.66474 C37.14066,19.0122 38.02476,19.18593 38.98524,19.18593 C40.09854,19.18593 41.06991,18.96876 41.89944,18.53445 C42.72894,18.10014 43.39473,17.53554 43.89681,16.84062 L47.7933,20.48886 Z M89.71134,23.6811 L89.71134,0.6 L105.31014,0.6 L105.31014,5.32707 L95.11848,5.32707 L95.11848,9.66291 L104.75304,9.66291 L104.75304,14.12919 L95.11848,14.12919 L95.11848,18.92145 L105.9,18.92145 L105.9,23.6811 L89.71134,23.6811 Z M128.7,12.08484 C128.7,14.10444 128.32344,15.84711 127.57035,17.31294 C126.81723,18.77877 125.82402,19.98399 124.59066,20.92863 C123.3573,21.87327 121.96572,22.56816 120.41583,23.01333 C118.86594,23.4585 117.29427,23.6811 115.70073,23.6811 L107.05638,23.6811 L107.05638,0.6189 L115.43877,0.6189 C117.07596,0.6189 118.69131,0.80892 120.28485,1.18893 C121.87839,1.56897 123.29727,2.19873 124.54155,3.07821 C125.7858,3.95772 126.78993,5.13579 127.55397,6.61248 C128.31798,8.08914 128.7,9.91326 128.7,12.08484 Z M122.8716,12.08484 C122.8716,10.78191 122.65878,9.70155 122.23311,8.84376 C121.80744,7.986 121.23987,7.30194 120.53043,6.79161 C119.82099,6.28131 119.0133,5.91756 118.10739,5.70039 C117.20148,5.48325 116.2683,5.37465 115.30779,5.37465 L112.52457,5.37465 L112.52457,18.86019 L115.17684,18.86019 C116.18097,18.86019 117.14691,18.74619 118.07466,18.51816 C119.00241,18.29016 119.82099,17.91555 120.53043,17.39436 C121.23987,16.8732 121.80744,16.17828 122.23311,15.30966 C122.65878,14.44101 122.8716,13.36608 122.8716,12.08484 Z" id="path-23"></path>
        <path d="M32.34603,35.94234 C23.64939,42.736914 11.08209,41.18322 4.27617,32.47203 C-2.52972,23.76087 -0.99699,11.19102 7.69968,4.39644 C16.39632,-2.39811 28.96362,-0.84441 35.76951,7.86675 C42.57543,16.57791 41.04267,29.14779 32.34603,35.94234 Z M30.81591,33.80655 C38.32449,27.9402 39.64785,17.08752 33.77172,9.5664 C27.89559,2.04531 17.04513,0.70383 9.53655,6.57018 C2.02797,12.43653 0.70461,23.28921 6.58074,30.81033 C12.4569,38.33142 23.30733,39.67287 30.81591,33.80655 Z M37.59852,42.66525 C39.1752,41.43342 41.45196,41.71296 42.68379,43.28964 L48.9228,51.275187 C50.15463,52.851864 49.87506,55.128612 48.29838,56.360448 C46.72173,57.592284 44.44497,57.312735 43.21314,55.736058 L36.97413,47.750511 C35.7423,46.173834 36.02187,43.897086 37.59852,42.66525 Z M36.47247,41.04657 C35.52201,41.78916 34.14855,41.61936 33.40473,40.66731 C32.66091,39.71529 32.82843,38.34153 33.77886,37.59894 C34.72932,36.85638 36.10281,37.02618 36.84663,37.9782 C37.59042,38.93025 37.42293,40.30401 36.47247,41.04657 Z" id="path-25"></path>
    </defs>
    <g id="Page-1" stroke="none" stroke-width="1" fill="none" fill-rule="evenodd">
        <g id="Tablet-Copy-13" transform="translate(-43.000000, -536.000000)">
            <g id="J-Cred-Logo-Copy" transform="translate(43.000000, 536.000000)">
                <g id="Group-3" transform="translate(17.700000, 24.900000)">
                    <mask id="mask-2" fill="white">
                        <use xlink:href="#path-1"></use>
                    </mask>
                    <g id="Clip-2"></g>
                    <polygon id="Fill-1" fill="#FFFFFF" mask="url(#mask-2)" points="-1.5 7.8 7.8 7.8 7.8 -1.5 -1.5 -1.5"></polygon>
                </g>
                <g id="Group-9" transform="translate(76.800000, 4.200000)">
                    <mask id="mask-4" fill="white">
                        <use xlink:href="#path-3"></use>
                    </mask>
                    <g id="Clip-8"></g>
                    <polygon id="Fill-7" fill="#F72222" mask="url(#mask-4)" points="-1.5 34.2 3.6 34.2 3.6 -1.29051 -1.5 -1.29051"></polygon>
                </g>
                <g id="Group-12" transform="translate(74.700000, 4.200000)">
                    <mask id="mask-6" fill="white">
                        <use xlink:href="#path-5"></use>
                    </mask>
                    <g id="Clip-11"></g>
                    <polygon id="Fill-10" fill="#F8891B" mask="url(#mask-6)" points="-1.5 34.2 3.6 34.2 3.6 -1.29459 -1.5 -1.29459"></polygon>
                </g>
                <g id="Group-15" transform="translate(72.300000, 4.200000)">
                    <mask id="mask-8" fill="white">
                        <use xlink:href="#path-7"></use>
                    </mask>
                    <g id="Clip-14"></g>
                    <polygon id="Fill-13" fill="#F8F824" mask="url(#mask-8)" points="-1.5 34.2 3.9 34.2 3.9 -1.28928 -1.5 -1.28928"></polygon>
                </g>
                <g id="Group-18" transform="translate(69.900000, 4.200000)">
                    <mask id="mask-10" fill="white">
                        <use xlink:href="#path-9"></use>
                    </mask>
                    <g id="Clip-17"></g>
                    <polygon id="Fill-16" fill="#30EF30" mask="url(#mask-10)" points="-1.5 21.25143 3.9 21.25143 3.9 -1.288614 -1.5 -1.288614"></polygon>
                </g>
                <g id="Group-21" transform="translate(67.500000, 4.200000)">
                    <mask id="mask-12" fill="white">
                        <use xlink:href="#path-11"></use>
                    </mask>
                    <g id="Clip-20"></g>
                    <polygon id="Fill-19" fill="#4040F4" mask="url(#mask-12)" points="-1.5 26.20206 3.9 26.20206 3.9 -1.28541 -1.5 -1.28541"></polygon>
                </g>
                <g id="Group-24" transform="translate(65.100000, 4.200000)">
                    <mask id="mask-14" fill="white">
                        <use xlink:href="#path-13"></use>
                    </mask>
                    <g id="Clip-23"></g>
                    <polygon id="Fill-22" fill-opacity="0.82" fill="#761EB6" mask="url(#mask-14)" points="-1.5 31.26006 3.9 31.26006 3.9 -1.27962 -1.5 -1.27962"></polygon>
                </g>
                <g id="Group-27" transform="translate(62.700000, 4.500000)">
                    <mask id="mask-16" fill="white">
                        <use xlink:href="#path-15"></use>
                    </mask>
                    <g id="Clip-26"></g>
                    <polygon id="Fill-25" fill="#BD33F8" mask="url(#mask-16)" points="-1.5 33.81468 3.9 33.81468 3.9 -1.33491 -1.5 -1.33491"></polygon>
                </g>
                <g id="Group-30" transform="translate(60.300000, 5.100000)">
                    <mask id="mask-18" fill="white">
                        <use xlink:href="#path-17"></use>
                    </mask>
                    <g id="Clip-29"></g>
                    <polygon id="Fill-28" fill="#E93ABE" mask="url(#mask-18)" points="-1.5 33.21588 3.9 33.21588 3.9 -1.23795 -1.5 -1.23795"></polygon>
                </g>
                <g id="Group-33" transform="translate(57.000000, 6.600000)">
                    <mask id="mask-20" fill="white">
                        <use xlink:href="#path-19"></use>
                    </mask>
                    <g id="Clip-32"></g>
                    <polygon id="Fill-31" fill="#F52067" mask="url(#mask-20)" points="-1.22124 31.70907 4.799997 31.70907 4.799997 -1.30431 -1.22124 -1.30431"></polygon>
                </g>
                <g id="Group-36" transform="translate(56.400000, 32.700000)">
                    <mask id="mask-22" fill="white">
                        <use xlink:href="#path-21"></use>
                    </mask>
                    <g id="Clip-35"></g>
                    <polygon id="Fill-34" fill="#F72222" mask="url(#mask-22)" points="-1.49433 5.6085 3.000012 5.6085 3.000012 -1.396563 -1.49433 -1.396563"></polygon>
                </g>
                <g id="Group">
                    <g id="Group-6" transform="translate(0.000000, 15.900000)">
                        <mask id="mask-24" fill="white">
                            <use xlink:href="#path-23"></use>
                        </mask>
                        <g id="Clip-5"></g>
                        <polygon id="Fill-4" fill="#FFFFFF" mask="url(#mask-24)" points="-1.5 25.8 130.2 25.8 130.2 -1.5 -1.5 -1.5"></polygon>
                    </g>
                    <g id="Group-39" transform="translate(48.000000, 0.000000)">
                        <mask id="mask-26" fill="white">
                            <use xlink:href="#path-25"></use>
                        </mask>
                        <g id="Clip-38"></g>
                        <polygon id="Fill-37" fill="#FFFFFF" mask="url(#mask-26)" points="-10.15251 16.44057 23.70486 -10.01169 66.15057 44.316327 32.2932 70.7686014"></polygon>
                    </g>
                    <g id="Group-42" transform="translate(0.300000, 38.700000)" fill="#FFFFFF" font-family="AvenirNextCondensed-Medium, Avenir Next Condensed" font-size="6.9" font-style="condensed" font-weight="400">
                        <text id="Being-Informed-is-Risk-Resolutio" letter-spacing="-0.0052199997">
                            <tspan x="0" y="7.17461853">Being Informed is Risk </tspan>
                            <tspan x="57.45354" y="7.17461853" letter-spacing="-0.0466199964">R</tspan>
                            <tspan x="60.76032" y="7.17461853">esolutio</tspan>
                        </text>
                        <text id="n">
                            <tspan x="80.4867" y="7.17461853">n</tspan>
                        </text>
                    </g>
                </g>
            </g>
        </g>
    </g>
</svg>