<?xml version="1.0" encoding="UTF-8"?>
<svg width="48px" height="55px" viewBox="0 0 48 55" version="1.1" xmlns="http://www.w3.org/2000/svg" xmlns:xlink="http://www.w3.org/1999/xlink">
    <!-- Generator: Sketch 52.6 (67491) - http://www.bohemiancoding.com/sketch -->
    <title>J-Cred Logo Copy 2@2x</title>
    <desc>Created with Sketch.</desc>
    <defs>
        <path d="M1.99111111,0.198627556 L1.99111111,29.0133333 C1.99111111,30.1129956 1.09966222,31.0044444 0,31.0044444 L0,0.198627556 L1.99111111,0.198627556 Z" id="path-1"></path>
        <polygon id="path-3" points="0 0.194759111 1.99111111 0.194759111 1.99111111 31.0044444 0 31.0044444"></polygon>
        <polygon id="path-5" points="0 0.199793778 2.27555556 0.199793778 2.27555556 31.0044444 0 31.0044444"></polygon>
        <path d="M2.27555556,13.3688889 L2.27555556,18.7272818 L0,18.7272818 L0,13.3688889 L2.27555556,13.3688889 Z M2.27555556,0.200419556 L2.27555556,6.25777778 L0,6.25777778 L0,0.200419556 L2.27555556,0.200419556 Z" id="path-7"></path>
        <path d="M2.27555556,13.3492338 L2.27555556,18.7249493 L2.22759822,18.7249493 L0,23.4212124 L0,13.2317298 C0.403655111,13.29536 0.761144889,13.3308587 1.07249778,13.3381973 C1.38385067,13.3455644 1.78486044,13.3492338 2.27555556,13.3492338 Z M0,0.203463111 L2.27555556,0.203463111 L2.27555556,6.25777778 L0,6.25777778 L0,0.203463111 Z" id="path-9"></path>
        <path d="M2.27555556,13.2363093 L2.27555556,23.4240853 L0,28.2169458 L0,12.2311111 C0.452323556,12.5965653 0.831573333,12.8342471 1.13777778,12.9442418 C1.44398222,13.054208 1.823232,13.1515733 2.27555556,13.2363093 Z M2.27555556,0.208952889 L2.27555556,6.25777778 C1.801472,6.320896 1.406976,6.402304 1.092096,6.50200178 C0.777216,6.601728 0.413184,6.80476444 0,7.11111111 L0,0.441969778 C0.524572444,0.365937778 0.919096889,0.314396444 1.18354489,0.287288889 C1.44799289,0.260209778 1.81199644,0.234097778 2.27555556,0.208952889 Z" id="path-11"></path>
        <path d="M2.27555556,6.82666667 C1.59621689,7.59776711 1.25656178,8.47007289 1.25656178,9.443584 C1.25656178,10.4170951 1.59621689,11.2535893 2.27555556,11.9530667 L2.27555556,27.9356587 L0.990492444,30.639104 L0,30.639104 L0,6.82666667 L0,0.813312 C0.316046222,0.682695111 0.635136,0.570538667 0.957269333,0.476871111 C1.27940267,0.383175111 1.71881244,0.276394667 2.27555556,0.156558222 L2.27555556,6.82666667 Z" id="path-13"></path>
        <path d="M2.27555556,17.6355556 L2.27555556,30.0713529 L0,30.0713529 L0,21.9944107 L2.27555556,17.6355556 Z M2.27555556,0.248462222 L2.27555556,16.7822222 C1.79606756,16.5604124 1.38959644,16.3475342 1.05617067,16.1436444 C0.722744889,15.9397262 0.370688,15.6785209 0,15.36 L0,1.61336889 C0.337237333,1.32798578 0.706503111,1.06686578 1.10779733,0.829980444 C1.50906311,0.593123556 1.89832533,0.399274667 2.27555556,0.248462222 Z" id="path-15"></path>
        <path d="M3.12888889,20.5735538 L3.12888889,28.6426738 L0.853333333,28.6426738 L0.853333333,24.8397653 L3.12888889,20.5735538 Z M3.12888889,0.185543111 L3.12888889,13.9377778 C2.66902756,13.6170382 2.23891911,13.1638044 1.83862044,12.5780196 C1.43829333,11.9922631 1.10987378,11.4025529 0.853333333,10.8088889 C0.460657778,9.51938844 0.264305778,8.31388444 0.264305778,7.19237689 C0.264305778,6.42756267 0.364771556,5.07952356 0.666424889,4.04605156 C1.02826667,2.80635733 1.62008178,1.90853689 1.87639467,1.52576 C2.18971022,1.057792 2.60718933,0.611072 3.12888889,0.185543111 Z" id="path-17"></path>
        <path d="M1.42222222,0.0980764444 L1.42222222,3.89546667 L0.919722667,3.89546667 C0.769223111,3.89546667 0.621027556,3.85831822 0.488334222,3.78729244 C0.0432071111,3.54904178 -0.124529778,2.99502933 0.113720889,2.54990222 L1.42222222,0.0980764444 Z" id="path-19"></path>
        <path d="M30.6688284,34.0786631 C22.4231253,40.5209259 10.5074631,39.0477938 4.05444267,30.7882951 C-2.39854933,22.5288249 -0.945294222,10.6107449 7.30043733,4.16847644 C15.5461404,-2.27376356 27.4618027,-0.800625778 33.9147947,7.45884444 C40.3678151,15.7183147 38.9145316,27.6364231 30.6688284,34.0786631 Z M29.218048,32.0536178 C36.3372942,26.4914489 37.5920356,16.2015004 32.0205938,9.07036444 C26.449152,1.93925689 16.1613084,0.667335111 9.04206222,6.229504 C1.922816,11.7916729 0.668074667,22.0816213 6.23951644,29.2127573 C11.8109867,36.3438649 22.0988018,37.6157582 29.218048,32.0536178 Z M35.6489671,40.4529778 C37.1438933,39.2850204 39.3025991,39.5500658 40.4705564,41.044992 L46.3860622,48.6164736 C47.5540196,50.111397 47.2889458,52.2700914 45.7940196,53.4380544 C44.2991218,54.6060174 42.140416,54.3409636 40.9724587,52.8460402 L35.0569529,45.2745586 C33.8889956,43.7796352 34.1540693,41.6209408 35.6489671,40.4529778 Z M34.5813049,38.9182293 C33.680128,39.6223147 32.3778844,39.4613191 31.6726329,38.5586347 C30.9673813,37.6559787 31.1262151,36.3534507 32.0273636,35.6493653 C32.9285404,34.9453084 34.2308124,35.106304 34.936064,36.00896 C35.6412871,36.9116444 35.4824818,38.2141724 34.5813049,38.9182293 Z" id="path-21"></path>
    </defs>
    <g id="Page-1" stroke="none" stroke-width="1" fill="none" fill-rule="evenodd">
        <g id="J.cred" transform="translate(-48.000000, -400.000000)">
            <g id="J-Cred-Logo-Copy-2" transform="translate(48.000000, 400.000000)">
                <g id="Group-9" transform="translate(27.324444, 3.982222)">
                    <mask id="mask-2" fill="white">
                        <use xlink:href="#path-1"></use>
                    </mask>
                    <g id="Clip-8"></g>
                    <polygon id="Fill-7" fill="#F72222" mask="url(#mask-2)" points="-1.42222222 32.4266667 3.41333333 32.4266667 3.41333333 -1.22359467 -1.42222222 -1.22359467"></polygon>
                </g>
                <g id="Group-12" transform="translate(25.333333, 3.982222)">
                    <mask id="mask-4" fill="white">
                        <use xlink:href="#path-3"></use>
                    </mask>
                    <g id="Clip-11"></g>
                    <polygon id="Fill-10" fill="#F8891B" mask="url(#mask-4)" points="-1.42222222 32.4266667 3.41333333 32.4266667 3.41333333 -1.22746311 -1.42222222 -1.22746311"></polygon>
                </g>
                <g id="Group-15" transform="translate(23.057778, 3.982222)">
                    <mask id="mask-6" fill="white">
                        <use xlink:href="#path-5"></use>
                    </mask>
                    <g id="Clip-14"></g>
                    <polygon id="Fill-13" fill="#F8F824" mask="url(#mask-6)" points="-1.42222222 32.4266667 3.69777778 32.4266667 3.69777778 -1.22242844 -1.42222222 -1.22242844"></polygon>
                </g>
                <g id="Group-18" transform="translate(20.782222, 3.982222)">
                    <mask id="mask-8" fill="white">
                        <use xlink:href="#path-7"></use>
                    </mask>
                    <g id="Clip-17"></g>
                    <polygon id="Fill-16" fill="#30EF30" mask="url(#mask-8)" points="-1.42222222 20.149504 3.69777778 20.149504 3.69777778 -1.22179698 -1.42222222 -1.22179698"></polygon>
                </g>
                <g id="Group-21" transform="translate(18.506667, 3.982222)">
                    <mask id="mask-10" fill="white">
                        <use xlink:href="#path-9"></use>
                    </mask>
                    <g id="Clip-20"></g>
                    <polygon id="Fill-19" fill="#4040F4" mask="url(#mask-10)" points="-1.42222222 24.8434347 3.69777778 24.8434347 3.69777778 -1.21875911 -1.42222222 -1.21875911"></polygon>
                </g>
                <g id="Group-24" transform="translate(16.231111, 3.982222)">
                    <mask id="mask-12" fill="white">
                        <use xlink:href="#path-11"></use>
                    </mask>
                    <g id="Clip-23"></g>
                    <polygon id="Fill-22" fill-opacity="0.82" fill="#761EB6" mask="url(#mask-12)" points="-1.42222222 29.639168 3.69777778 29.639168 3.69777778 -1.21326933 -1.42222222 -1.21326933"></polygon>
                </g>
                <g id="Group-27" transform="translate(13.955556, 4.266667)">
                    <mask id="mask-14" fill="white">
                        <use xlink:href="#path-13"></use>
                    </mask>
                    <g id="Clip-26"></g>
                    <polygon id="Fill-25" fill="#BD33F8" mask="url(#mask-14)" points="-1.42222222 32.0613262 3.69777778 32.0613262 3.69777778 -1.26569244 -1.42222222 -1.26569244"></polygon>
                </g>
                <g id="Group-30" transform="translate(11.680000, 4.835556)">
                    <mask id="mask-16" fill="white">
                        <use xlink:href="#path-15"></use>
                    </mask>
                    <g id="Clip-29"></g>
                    <polygon id="Fill-28" fill="#E93ABE" mask="url(#mask-16)" points="-1.42222222 31.4935751 3.69777778 31.4935751 3.69777778 -1.17376 -1.42222222 -1.17376"></polygon>
                </g>
                <g id="Group-33" transform="translate(8.551111, 6.257778)">
                    <mask id="mask-18" fill="white">
                        <use xlink:href="#path-17"></use>
                    </mask>
                    <g id="Clip-32"></g>
                    <polygon id="Fill-31" fill="#F52067" mask="url(#mask-18)" points="-1.15791644 30.064896 4.55110827 30.064896 4.55110827 -1.23667911 -1.15791644 -1.23667911"></polygon>
                </g>
                <g id="Group-36" transform="translate(7.982222, 31.004444)">
                    <mask id="mask-20" fill="white">
                        <use xlink:href="#path-19"></use>
                    </mask>
                    <g id="Clip-35"></g>
                    <polygon id="Fill-34" fill="#F72222" mask="url(#mask-20)" points="-1.41684622 5.31768889 2.84445582 5.31768889 2.84445582 -1.32414862 -1.41684622 -1.32414862"></polygon>
                </g>
                <g id="Group-39" transform="translate(0.017778, 0.000000)">
                    <mask id="mask-22" fill="white">
                        <use xlink:href="#path-21"></use>
                    </mask>
                    <g id="Clip-38"></g>
                    <polygon id="Fill-37" fill="#263245" mask="url(#mask-22)" points="-9.62608356 15.588096 22.4757191 -9.49256533 62.7205404 42.0184434 30.6187378 67.0991184"></polygon>
                </g>
            </g>
        </g>
    </g>
</svg>