<svg id="Layer_1" data-name="Layer 1" xmlns="http://www.w3.org/2000/svg" xmlns:xlink="http://www.w3.org/1999/xlink" viewBox="0 0 470.35 343.97"><defs><style>.cls-1{fill:#f5c535;}.cls-2,.cls-22{fill:#483b02;}.cls-3{fill:#ccbf81;}.cls-4{fill:#fc8f22;}.cls-5{fill:#c1e33b;}.cls-6{fill:none;}.cls-7{fill:#2e221a;}.cls-8{fill:#b7d93c;}.cls-9{fill:#614633;}.cls-10{fill:#fb8f22;}.cls-11{fill:#ece0a5;}.cls-12{fill:url(#linear-gradient);}.cls-13{fill:#fff;}.cls-14{fill:#84bf03;}.cls-15{fill:#4e3a2c;}.cls-16{fill:#604533;}.cls-17{fill:#f7f5f4;}.cls-18{fill:#4d3a29;}.cls-19{font-size:12px;font-family:MyriadPro-Regular, Myriad Pro;}.cls-20{letter-spacing:-0.01em;}.cls-21{letter-spacing:-0.01em;}.cls-22{font-size:52.96px;font-family:Asap-Regular, Asap;}</style><linearGradient id="linear-gradient" x1="417" y1="409.36" x2="465.18" y2="409.36" gradientUnits="userSpaceOnUse"><stop offset="0.06" stop-color="#bbe638"/><stop offset="0.2" stop-color="#b1e030"/><stop offset="0.43" stop-color="#95cf1a"/><stop offset="0.44" stop-color="#94ce19"/></linearGradient></defs><title>Peosa</title><rect class="cls-1" x="58.64" y="254.67" width="7.06" height="14.1" transform="translate(92.7 374.77) rotate(180)"/><rect class="cls-2" x="58.64" y="282.87" width="7.06" height="14.1" transform="translate(92.7 431.17) rotate(180)"/><rect class="cls-3" x="58.64" y="311.07" width="7.06" height="14.1" transform="translate(92.7 487.57) rotate(180)"/><rect class="cls-4" x="58.64" y="339.28" width="7.06" height="14.1" transform="translate(92.7 543.98) rotate(180)"/><rect class="cls-5" x="58.64" y="226.47" width="7.06" height="14.1" transform="translate(92.7 318.36) rotate(180)"/><text x="-31.64" y="-148.67"/><path class="cls-6" d="M454.45,398.94l0,.78h0C454.47,399.46,454.46,399.2,454.45,398.94Z" transform="translate(-31.64 -148.67)"/><path class="cls-7" d="M454.45,384.81" transform="translate(-31.64 -148.67)"/><path class="cls-8" d="M342.69,457.82a67.23,67.23,0,0,0-19.3-2.15,57.09,57.09,0,0,0-18.92,3.81A39.32,39.32,0,0,0,296,464a28,28,0,0,1-4.35,2.43c-1.53.68-3.08,1.22-4.64,1.74a44.54,44.54,0,0,1-9.68,2.17,23.32,23.32,0,0,1-10-1,27.38,27.38,0,0,1-8.58-5.31c-2.51-2.16-4.83-4.43-7.28-6.52a83.88,83.88,0,0,0-7.6-5.85c-1.35-.85-2.67-1.75-4.08-2.51s-2.77-1.58-4.21-2.28a70.15,70.15,0,0,0-18-6.21,50,50,0,0,0-9.36-.89,57.21,57.21,0,0,0-9.39.85c-6.24,1.05-12.68,2.94-19.58,3.08a46.71,46.71,0,0,1-5.15-.16,40.86,40.86,0,0,1-5.12-.87,35.5,35.5,0,0,1-5-1.58,38.77,38.77,0,0,1-4.67-2.4,53.19,53.19,0,0,1-8.13-6.21c-2.47-2.23-4.81-4.52-7.15-6.72a100.08,100.08,0,0,0-14.84-11.8,76,76,0,0,0-8.21-4.61c-1.39-.72-2.85-1.31-4.28-2s-2.91-1.18-4.38-1.7A99.78,99.78,0,0,0,94,401a131.11,131.11,0,0,0-18.9-1.5c-5.48,0-11,.28-16.44.78v-7.95c5.52-.34,11-.49,16.58-.33a138,138,0,0,1,19.94,2.1,106.76,106.76,0,0,1,19.39,5.41c1.57.61,3.11,1.29,4.66,2s3.06,1.41,4.54,2.22a82.4,82.4,0,0,1,8.68,5.17,104.79,104.79,0,0,1,15.36,12.86c4.69,4.59,9,9.39,14.1,12.64a34.53,34.53,0,0,0,4,2.17A31.42,31.42,0,0,0,170.1,438a36.26,36.26,0,0,0,4.46.88,39.16,39.16,0,0,0,4.6.26c6.17.06,12.41-1.57,19-2.53a62.32,62.32,0,0,1,10.05-.65,55,55,0,0,1,10,1.2,73.63,73.63,0,0,1,18.65,7c1.48.76,2.91,1.6,4.32,2.48s2.78,1.8,4.16,2.72a84.24,84.24,0,0,1,7.7,6.24c2.45,2.21,4.73,4.55,7.1,6.7a25.08,25.08,0,0,0,7.78,5.12,21.57,21.57,0,0,0,9.2,1.17,42.94,42.94,0,0,0,9.38-1.86c1.54-.48,3.08-1,4.54-1.57a27,27,0,0,0,4.22-2.22,41,41,0,0,1,4.28-2.46,47.74,47.74,0,0,1,4.56-1.91,57.63,57.63,0,0,1,19.26-3.37A67.28,67.28,0,0,1,342.69,457.82Z" transform="translate(-31.64 -148.67)"/><path class="cls-1" d="M342.69,458.23a51.93,51.93,0,0,0-19.12-1.77A60.21,60.21,0,0,0,305,461.13a56.74,56.74,0,0,0-8.51,4.42,47.84,47.84,0,0,1-4.26,2.42c-1.48.72-3,1.34-4.51,1.93a48.7,48.7,0,0,1-9.43,2.76,25.28,25.28,0,0,1-10-.17,27.08,27.08,0,0,1-9.11-4.13,89.86,89.86,0,0,1-7.78-6c-2.48-2.06-5-4.07-7.54-5.9a70.59,70.59,0,0,0-8.09-4.95A60.36,60.36,0,0,0,218,445.44a48.63,48.63,0,0,0-18.57.39c-6.15,1.19-12.37,3.35-19.17,4a40.35,40.35,0,0,1-10.23-.29,36.74,36.74,0,0,1-9.86-3.09,48.7,48.7,0,0,1-8.71-5.3c-2.71-2-5.14-4.26-7.55-6.42A102.09,102.09,0,0,0,129.14,423a84.76,84.76,0,0,0-35-12.13,136,136,0,0,0-35.53.59v-8a142.61,142.61,0,0,1,36.51.47,100.33,100.33,0,0,1,19.39,4.95,89.34,89.34,0,0,1,9.21,4l2.22,1.16c.73.41,1.44.86,2.17,1.28,1.42.88,2.9,1.68,4.28,2.63a108.72,108.72,0,0,1,15.23,12.69c2.34,2.22,4.62,4.41,7,6.32a42.85,42.85,0,0,0,7.68,4.94,31.78,31.78,0,0,0,8.48,2.91,35.13,35.13,0,0,0,9.06.48c6.11-.38,12.27-2.31,18.81-3.43a52.42,52.42,0,0,1,19.92.11c1.63.37,3.22.68,4.85,1.15s3.18,1,4.73,1.59a71.6,71.6,0,0,1,9,4.17,72.72,72.72,0,0,1,8.28,5.36c2.63,2,5.12,4.1,7.55,6.23a89.42,89.42,0,0,0,7.43,6,24.79,24.79,0,0,0,8.31,4.05,23.39,23.39,0,0,0,9.25.38,46.8,46.8,0,0,0,9.18-2.44c1.51-.54,3-1.1,4.44-1.76s2.82-1.44,4.21-2.25a58.28,58.28,0,0,1,8.77-4.28A61.13,61.13,0,0,1,323.53,456,52.13,52.13,0,0,1,342.69,458.23Z" transform="translate(-31.64 -148.67)"/><path class="cls-9" d="M342.69,458.65a45.17,45.17,0,0,0-9.42-1.8,42,42,0,0,0-9.57.34,66.37,66.37,0,0,0-18.24,5.6,87.61,87.61,0,0,0-8.49,4.42c-1.38.81-2.78,1.63-4.22,2.39s-2.93,1.42-4.39,2.07a57.31,57.31,0,0,1-9.18,3.32,27.39,27.39,0,0,1-9.89.7,28.63,28.63,0,0,1-9.52-2.84,45.14,45.14,0,0,1-8.28-5.36c-2.55-2-5-4.09-7.5-6a64.21,64.21,0,0,0-7.88-5.15,51.31,51.31,0,0,0-17.57-6,52.32,52.32,0,0,0-9.26-.52,51.23,51.23,0,0,0-9.18,1.28c-6.08,1.33-12.1,3.73-18.76,4.86a41.41,41.41,0,0,1-10.15.52,39.89,39.89,0,0,1-10-2.13,46.6,46.6,0,0,1-4.69-1.92c-.78-.36-1.55-.73-2.3-1.15s-1.49-.84-2.21-1.3a62,62,0,0,1-8-6.07c-2.47-2.14-4.82-4.27-7.23-6.24a76.84,76.84,0,0,0-7.51-5.43c-1.29-.84-2.68-1.52-4-2.29-.68-.37-1.33-.76-2-1.11l-2.08-1a80.28,80.28,0,0,0-8.61-3.35,87.86,87.86,0,0,0-18.13-3.69c-11.87-1.19-23.93-.19-35.78,1.92v-8.05a136.78,136.78,0,0,1,36.56-.83,94.94,94.94,0,0,1,19.43,4.49,85.69,85.69,0,0,1,9.23,3.87l2.22,1.15c.74.39,1.45.84,2.17,1.26,1.43.87,2.91,1.66,4.29,2.6a81.29,81.29,0,0,1,7.93,6.05c2.5,2.16,4.86,4.41,7.19,6.53a56.55,56.55,0,0,0,7.17,5.78c.62.41,1.25.82,1.91,1.18s1.3.73,2,1.06a38.72,38.72,0,0,0,4.17,1.83,34.81,34.81,0,0,0,8.72,2.11,36.55,36.55,0,0,0,9-.24c6.06-.84,12.13-3.05,18.62-4.33a53.6,53.6,0,0,1,38.32,6.58,66.8,66.8,0,0,1,8.09,5.59c2.55,2,4.95,4.19,7.38,6.22,4.79,4.07,10.31,7.33,16.49,8.16a25.64,25.64,0,0,0,9.23-.43,54.79,54.79,0,0,0,9-3c1.48-.61,2.94-1.22,4.36-1.92s2.82-1.47,4.23-2.24a88.34,88.34,0,0,1,8.69-4.25,67,67,0,0,1,18.59-5.19,42.66,42.66,0,0,1,9.65-.09A44.93,44.93,0,0,1,342.69,458.65Z" transform="translate(-31.64 -148.67)"/><path class="cls-3" d="M342.69,459.06a37.21,37.21,0,0,0-18.89-1.19,54,54,0,0,0-9.15,2.72c-.74.29-1.48.59-2.21.9s-1.45.67-2.17,1l-4.34,2c-5.82,2.6-11.15,6.18-17,8.94a73,73,0,0,1-8.92,3.83,30,30,0,0,1-9.73,1.61,33.68,33.68,0,0,1-4.93-.4,27.47,27.47,0,0,1-4.85-1.12,30.38,30.38,0,0,1-8.78-4.67c-2.63-2-5-4.1-7.49-6.09a60.65,60.65,0,0,0-7.65-5.42,44.85,44.85,0,0,0-17.43-6,51.9,51.9,0,0,0-9.23-.37,49.55,49.55,0,0,0-9.11,1.46c-6,1.48-11.87,4.09-18.34,5.73a44.1,44.1,0,0,1-10,1.4,40.45,40.45,0,0,1-10.12-1.14,45,45,0,0,1-9.58-3.44,45.64,45.64,0,0,1-8.47-5.62c-2.57-2.11-4.92-4.27-7.32-6.26a67.91,67.91,0,0,0-7.43-5.44c-.64-.43-1.31-.8-2-1.16l-2-1.11c-.67-.36-1.33-.75-2-1.1l-2.08-1a77.35,77.35,0,0,0-8.6-3.23,84,84,0,0,0-18.12-3.26c-12-.86-24.2.65-36.09,3.28v-8.11c12-2.23,24.34-3.34,36.68-2.14a90.13,90.13,0,0,1,19.51,4,83.62,83.62,0,0,1,9.27,3.76l2.24,1.13c.73.4,1.44.84,2.17,1.25l2.16,1.27a24.5,24.5,0,0,1,2.13,1.33,73.94,73.94,0,0,1,7.89,6.1c2.48,2.16,4.79,4.4,7.12,6.42a40.62,40.62,0,0,0,7.36,5.17,39.8,39.8,0,0,0,8.38,3.25,36,36,0,0,0,17.88.21c6-1.33,12-3.81,18.45-5.24a53.5,53.5,0,0,1,9.87-1.32,56.47,56.47,0,0,1,9.91.66c.82.13,1.62.31,2.43.46s1.62.32,2.43.53a46.66,46.66,0,0,1,4.75,1.49,50.87,50.87,0,0,1,8.87,4.4,63.47,63.47,0,0,1,7.85,5.88c2.47,2.1,4.79,4.29,7.25,6.21a28.31,28.31,0,0,0,8,4.54,26.51,26.51,0,0,0,4.46,1.14,31.52,31.52,0,0,0,4.62.5,28,28,0,0,0,9.17-1.28,70.26,70.26,0,0,0,8.81-3.51c5.81-2.56,11.27-6,17.22-8.5l4.41-1.92c.74-.32,1.47-.65,2.21-1s1.51-.57,2.26-.84a53.67,53.67,0,0,1,9.32-2.51A37.56,37.56,0,0,1,342.69,459.06Z" transform="translate(-31.64 -148.67)"/><path class="cls-10" d="M342.69,459.48a33.47,33.47,0,0,0-18.85-1c-6.2,1.5-11.78,4.8-17.49,7.65s-11.26,6.06-16.89,9.13c-2.83,1.52-5.67,3-8.68,4.3a33.06,33.06,0,0,1-9.52,2.51l-1.24.12-1.23,0c-.83,0-1.64,0-2.45,0a31,31,0,0,1-4.95-.38,19.74,19.74,0,0,1-4.84-1.45,19.13,19.13,0,0,1-2.28-1.1,22.17,22.17,0,0,1-2.14-1.3,77.22,77.22,0,0,1-7.57-6.17,61.73,61.73,0,0,0-7.4-5.77,44,44,0,0,0-4-2.28,40.43,40.43,0,0,0-4.27-1.71,47,47,0,0,0-27.33-.62c-6,1.6-11.68,4.39-17.92,6.56a42.59,42.59,0,0,1-20,2.22c-1.66-.33-3.34-.59-5-1l-2.45-.69-2.43-.86a37.22,37.22,0,0,1-9-5c-2.73-2-5.1-4.27-7.49-6.28a63.06,63.06,0,0,0-7.36-5.52,64.13,64.13,0,0,0-8.06-4.31,70.8,70.8,0,0,0-8.61-3.13,78.6,78.6,0,0,0-18.14-2.85c-12.22-.53-24.51,1.51-36.47,4.66v-8.19c12-2.71,24.38-4.32,36.86-3.46a86.16,86.16,0,0,1,19.64,3.62,71.22,71.22,0,0,1,18.07,8.65,68.55,68.55,0,0,1,7.85,6.19c2.45,2.19,4.71,4.4,7.06,6.26a31.87,31.87,0,0,0,7.6,4.52l2.09.8,2.15.67c1.46.39,2.94.65,4.41,1a37.69,37.69,0,0,0,17.86-1.56c5.91-1.87,11.85-4.59,18.31-6.15a50,50,0,0,1,19.78-1l2.45.45a22.82,22.82,0,0,1,2.43.51,40.18,40.18,0,0,1,4.76,1.46,42.26,42.26,0,0,1,4.59,2,47,47,0,0,1,4.27,2.58,64,64,0,0,1,7.58,6.22,73.92,73.92,0,0,0,7.15,6.16,20.87,20.87,0,0,0,1.92,1.24,16.07,16.07,0,0,0,2,1,18.39,18.39,0,0,0,4.3,1.42,30.12,30.12,0,0,0,4.61.47c.79,0,1.59,0,2.35,0h1.17l1.16-.08c6.21-.4,12-3.27,17.68-6.15s11.37-5.89,17.14-8.69c2.89-1.4,5.77-2.79,8.7-4.12a46.57,46.57,0,0,1,9.12-3.13A33.7,33.7,0,0,1,342.69,459.48Z" transform="translate(-31.64 -148.67)"/><path class="cls-11" d="M393.6,460.94a36.29,36.29,0,0,0-11.85,3.26,17,17,0,0,0-5.37,3.83,15.55,15.55,0,0,0-2.16,3.06c-5.75,10.22-6.78,12-8.3,13.72a23,23,0,0,1-6.43,5.1,18.64,18.64,0,0,0,3.09-1,20.16,20.16,0,0,0,4.17-2.55c1.83-1.48,2.86-3,5.67-7.33,4.07-6.28,4.83-7.62,6.83-9.22a18,18,0,0,1,4.62-2.65,1,1,0,0,1,.56.45c.5,1.08-2.32,2.92-4.39,5.39a23.6,23.6,0,0,0-4.17,9.48c-.65,3.56.55,5.38-1.15,8.4a10,10,0,0,1-1.31,1.8,9.15,9.15,0,0,0,2.42-2.07c1.66-2.05,1.39-3.67,2.56-7.16a35.74,35.74,0,0,1,2.94-6.18c1.21-2.22.93-1.18,3.52-5.17,1.23-1.9,1.9-3.05,3.33-3.5.21-.07,1.55-.5,2.27.15s.42,2,0,3.9c-1,4-1.43,6-1.88,7.18-.73,2-1.39,3.36-2.77,7.16-.45,1.26-.81,2.29-.62,2.39s1.48-1.75,1.88-2.37a32.68,32.68,0,0,0,2.1-3.74c1.75-3.73,1.79-5.3,3.19-8.73,2-4.82,3.25-5.32,3.27-7.91A9.79,9.79,0,0,0,393.6,460.94Z" transform="translate(-31.64 -148.67)"/><path class="cls-12" d="M465.18,374.09a10.24,10.24,0,0,0-4.32-3.17,8.75,8.75,0,0,0-2.86-.47,8.87,8.87,0,0,0-2.49.35,10.07,10.07,0,0,0-3,1.57c-1,.81-2.81,2.89-3.3,9-.27,3.36.25,2.86.64,11.4a39.37,39.37,0,0,1-.45,9.67c-1,5.27-2.18,6.53-5.35,15.23-.35.94-2.53,7-4.55,14.87a36.58,36.58,0,0,0-.86,17.52c.17.95.36,1.86.6,2.75-4.7-.82-6.35-2.18-6.71-3.54s1.19-2.49,2.1-5.43c.15-.48.29-.93.42-1.39,1-3.64,1.64-6.85,1.73-7.31,1.25-6.66,1.88-10.23,1.07-14.84-.11-.62-.23-1.12-.3-1.44h0a17.85,17.85,0,0,0-3.59-7.58c-.31-.43-1.27-1.52-3.19-3.72s-2.7-3.05-3.18-3.61a22.28,22.28,0,0,1-4.36-8.74c-.09-.27-.21-.66-.37-1.13-.76-2.22-1.15-3.34-1.76-4.06-.34-.4-1.42-1.49-4.08-1.58a5.39,5.39,0,0,1,3.21-.88,6.06,6.06,0,0,1,2.65.9,16.29,16.29,0,0,1,2.07,1.39,15,15,0,0,1,2.47,2.41,29.89,29.89,0,0,1,3.52,4.73,27.6,27.6,0,0,1,2.74,5.95c.27.84.11.38,1.15,3.56,1.45,4.44,2.14,6.3,3.35,8.37.3.52.57.93.73,1.19-.3-2.78-.68-5-1-6.48-.52-2.74-.9-3.94-1.34-6.52s-.58-4.43-.66-5.67c0,0,0,0,0,0-.07-.32-.12-.64-.18-1a43.28,43.28,0,0,1-.62-6.86c0-.57,0-1,0-1.3a34.48,34.48,0,0,1,.86-6.88c.06-.26.12-.5.14-.55a23.83,23.83,0,0,1,.93-2.87s.09-.25.2-.49a20,20,0,0,1,9-9.93,14.69,14.69,0,0,1,10.43-1.05A14.94,14.94,0,0,1,465.18,374.09Z" transform="translate(-31.64 -148.67)"/><path class="cls-13" d="M449.35,370.78a11.66,11.66,0,0,0-4.1,2.86,12.53,12.53,0,0,0-2.53,4.24,27.61,27.61,0,0,0-1.38,9.87c0,1.67.16,3.37.31,5s.39,3.37.48,5.08c.2,3.38.29,6.95-1,10.13a17.37,17.37,0,0,0,.6-5,40.65,40.65,0,0,0-.33-5.05l-.65-5.05c-.18-1.71-.33-3.4-.37-5.13A25.43,25.43,0,0,1,442,377.6a12.83,12.83,0,0,1,2.89-4.3l1-.85c.36-.24.74-.45,1.11-.67l.55-.33.6-.23Z" transform="translate(-31.64 -148.67)"/><path class="cls-13" d="M422.67,389.72a10.33,10.33,0,0,1,3.7,3,29.29,29.29,0,0,1,2.75,3.91,40.65,40.65,0,0,1,3.86,8.65c-1.64-2.71-3.13-5.46-4.72-8.14q-1.18-2-2.5-3.94A15.45,15.45,0,0,0,422.67,389.72Z" transform="translate(-31.64 -148.67)"/><path class="cls-14" d="M449.36,379.75A45.78,45.78,0,0,0,448.25,393a38.6,38.6,0,0,1,.29,6.66,24.06,24.06,0,0,1-3.07,9.74s-1.53,3.84-3.72,9.2a26.3,26.3,0,0,0-1.91,6.53c-.12.9,0,1.76-.17,4.1-.08,1.5-.18,2.74-.25,3.56.57-2.33,1.46-5.72,2.77-9.74.78-2.4,1.43-4.15,2.7-7.57,3.44-9.29,3.85-9.44,4.35-12.22a49.72,49.72,0,0,0,.62-9.33,51.4,51.4,0,0,0-.26-5.49,48,48,0,0,1-.47-4.87A24.72,24.72,0,0,1,449.36,379.75Z" transform="translate(-31.64 -148.67)"/><path class="cls-15" d="M421.15,472.78c-12.86,4.05-25.68-.29-28.63-9.68a14.42,14.42,0,0,1,.65-10,21.21,21.21,0,0,1,3.81-5.9l0-.06A31.54,31.54,0,0,1,408.25,440l.38-.15c.64-.23,1.28-.46,1.95-.67.89-.28,1.78-.53,2.66-.73.32-.08.65-.16,1-.21a31.27,31.27,0,0,1,10.92-.49,21.41,21.41,0,0,1,8.13,3.22,14.33,14.33,0,0,1,5.8,7.53C442,457.84,434,468.73,421.15,472.78Z" transform="translate(-31.64 -148.67)"/><path class="cls-16" d="M418.73,465.25c-12,3.79-23.49,1.08-25.72-6.06a8.59,8.59,0,0,1-.32-3.42c.58-5.85,6.74-12.1,15.62-15.54l.38-.15c.64-.24,1.29-.46,1.95-.67.89-.29,1.78-.53,2.66-.74.32-.08.66-.16,1-.21,8.76-1.86,16.77-.23,20.4,4a8.36,8.36,0,0,1,1.68,3C438.59,452.6,430.7,461.46,418.73,465.25Z" transform="translate(-31.64 -148.67)"/><path class="cls-17" d="M433.3,444.33c-4.16-2.05-10.15-2.55-16.54-1.2-.33.05-.65.13-1,.21q-1.32.3-2.64.72c-.66.22-1.31.44-1.94.67a3,3,0,0,0-.38.15c-6.89,2.65-12.13,7-14.37,11.53a5.09,5.09,0,0,1,0-.55c.51-5.09,5.9-10.53,13.68-13.54l.33-.12c.56-.22,1.13-.4,1.71-.6.78-.24,1.56-.46,2.33-.63a8.23,8.23,0,0,1,.86-.19c7.67-1.62,14.68-.19,17.86,3.51Z" transform="translate(-31.64 -148.67)"/><path class="cls-7" d="M435.28,448.17a33.12,33.12,0,0,1-20.72,13.52,34,34,0,0,1-20.08-1.63,56.78,56.78,0,0,0,17.59-1A55.29,55.29,0,0,0,435.28,448.17Z" transform="translate(-31.64 -148.67)"/><path class="cls-18" d="M338,473.45V439a1.35,1.35,0,0,1,1.59-1.59h10.75a15.25,15.25,0,0,1,8.23,2.22q3.58,2.23,3.58,8.16a10.23,10.23,0,0,1-2.07,6.83,10.12,10.12,0,0,1-4.6,3.26,15.08,15.08,0,0,1-4.61.82h-8.21v14.72c0,.78-.71,1.17-2.12,1.17h-.42C338.74,474.62,338,474.23,338,473.45ZM351,454.71a7.22,7.22,0,0,0,4.35-1.54c1.37-1,2.06-2.81,2.06-5.35,0-2.36-.71-4-2.12-4.95a8.86,8.86,0,0,0-5-1.4h-7.52v13.24Z" transform="translate(-31.64 -148.67)"/><path class="cls-18" d="M369.22,474.14a1.69,1.69,0,0,1-.37-1.22V439a1.71,1.71,0,0,1,.37-1.22,1.68,1.68,0,0,1,1.22-.37h18.48a.91.91,0,0,1,.83.37A2.45,2.45,0,0,1,390,439v.85a2.41,2.41,0,0,1-.23,1.21.91.91,0,0,1-.83.38H373.51v12.07h13.83a.9.9,0,0,1,.82.37,2.48,2.48,0,0,1,.23,1.22V456a2.41,2.41,0,0,1-.23,1.21.91.91,0,0,1-.82.38H373.51v12.92H389a.89.89,0,0,1,.82.37,2.33,2.33,0,0,1,.24,1.22v.84a2.31,2.31,0,0,1-.24,1.22.89.89,0,0,1-.82.37H370.44A1.68,1.68,0,0,1,369.22,474.14Z" transform="translate(-31.64 -148.67)"/><path class="cls-18" d="M450.72,474.09a12,12,0,0,1-4.08-1.8c-.67-.5-1-.94-1-1.33a3.68,3.68,0,0,1,.71-1.74c.48-.74.86-1.12,1.14-1.12a3.8,3.8,0,0,1,1.11.53,20.8,20.8,0,0,0,3.53,1.54,14.07,14.07,0,0,0,4.47.64,7.21,7.21,0,0,0,5-1.73,5.75,5.75,0,0,0,1.94-4.52,5,5,0,0,0-1.06-3.26,8,8,0,0,0-2.57-2.07c-1-.51-2.46-1.13-4.37-1.88a41.87,41.87,0,0,1-4.87-2.22,8.66,8.66,0,0,1-3.07-3,9.56,9.56,0,0,1-1.27-5.22,9,9,0,0,1,1.45-5.08,9.64,9.64,0,0,1,4.13-3.47,14.49,14.49,0,0,1,6.17-1.25,18.2,18.2,0,0,1,4,.51,9.7,9.7,0,0,1,3.44,1.35c.71.42,1.06.88,1.06,1.37a3.81,3.81,0,0,1-.66,1.7c-.44.74-.79,1.11-1,1.11a1.92,1.92,0,0,1-.76-.26l-.67-.37a11.74,11.74,0,0,0-5.5-1.38,7.39,7.39,0,0,0-5,1.59,5.42,5.42,0,0,0-1.89,4.39,4.43,4.43,0,0,0,.93,2.92,6.17,6.17,0,0,0,2.12,1.66c.79.37,2.18,1,4.16,1.72a40.07,40.07,0,0,1,5.19,2.36,10,10,0,0,1,3.41,3.28,9.81,9.81,0,0,1,1.41,5.49,9.45,9.45,0,0,1-3.18,7.52q-3.18,2.75-8.58,2.75A22.33,22.33,0,0,1,450.72,474.09Z" transform="translate(-31.64 -148.67)"/><path class="cls-18" d="M470.79,473.72A2.67,2.67,0,0,1,471,473l12.55-34.8c.22-.56.92-.85,2.12-.85h1.54c1.27,0,2,.29,2.12.85L501.83,473a1.9,1.9,0,0,1,.16.69q0,.9-2.28.9h-.42c-1.24,0-2-.28-2.12-.85L494,465.09H478.47l-3,8.68c-.17.57-.88.85-2.11.85h-.27Q470.79,474.62,470.79,473.72Zm21.82-12.66-5.56-15.78a27.31,27.31,0,0,1-.63-3.07h-.11a21.2,21.2,0,0,1-.79,3.07L480,461.06Z" transform="translate(-31.64 -148.67)"/><path class="cls-9" d="M190.92,731.91" transform="translate(-31.64 -148.67)"/><path class="cls-9" d="M182.87,689.93" transform="translate(-31.64 -148.67)"/><text x="-31.64" y="-148.67"/><text class="cls-19" transform="translate(42.66 88.97)">c1e33b</text><text class="cls-19" transform="translate(45.13 117.43)">f5c535</text><text class="cls-19" transform="translate(45.13 144.42)">483b02</text><text class="cls-19" transform="translate(42.66 172.39)"><tspan class="cls-20">c</tspan><tspan x="5.3" y="0">cbf81</tspan></text><text class="cls-19" transform="translate(42.66 202.82)"><tspan class="cls-21">f</tspan><tspan x="3.35" y="0">c8f22</tspan></text><text class="cls-22" transform="translate(127.59 202.82)">Asap Regular</text></svg>